<svg width="333" height="54" viewBox="0 0 333 54" fill="none" xmlns="http://www.w3.org/2000/svg">
<path d="M29.84 7.8C28.6666 7.8 27.7866 8.06667 27.2 8.6C26.6133 9.13334 26.32 10.1467 26.32 11.64V13.96H33.04V22.04H26.32V53H0L15.6 46.12V11C15.6 3.96 18.9066 0.440002 25.52 0.440002H33.04V7.8H29.84Z" fill="#5553EE"/>
<path d="M57.6275 13.96H66.6675V53H57.6275V50.12C55.9741 52.5733 53.2275 53.8 49.3875 53.8H47.7075C41.0941 53.8 37.7875 50.28 37.7875 43.24V23.72C37.7875 16.68 41.0941 13.16 47.7075 13.16H49.3875C53.2275 13.16 55.9741 14.3867 57.6275 16.84V13.96ZM55.9475 44.52V22.44C55.9475 22.0133 55.7875 21.64 55.4675 21.32C55.2008 21 54.8541 20.84 54.4275 20.84H50.0275C49.6008 20.84 49.2275 21 48.9075 21.32C48.6408 21.64 48.5075 22.0133 48.5075 22.44V44.52C48.5075 44.9467 48.6408 45.32 48.9075 45.64C49.2275 45.96 49.6008 46.12 50.0275 46.12H54.4275C54.8541 46.12 55.2008 45.96 55.4675 45.64C55.7875 45.32 55.9475 44.9467 55.9475 44.52Z" fill="#5553EE"/>
<path d="M104.679 13.96L96.6794 32.28L105.959 53H95.2393L87.8793 36.76H84.6794V53H73.9594V1.24H84.6794V27.96H88.2794L94.1194 13.96H104.679Z" fill="#5553EE"/>
<path d="M129.404 13.16C136.017 13.16 139.324 16.68 139.324 23.72V36.36H121.164V44.52C121.164 44.9467 121.297 45.32 121.564 45.64C121.884 45.96 122.257 46.12 122.684 46.12H127.084C127.51 46.12 127.857 45.96 128.124 45.64C128.444 45.32 128.604 44.9467 128.604 44.52V40.2H139.324V43.24C139.324 50.28 136.017 53.8 129.404 53.8H120.364C113.75 53.8 110.444 50.28 110.444 43.24V23.72C110.444 16.68 113.75 13.16 120.364 13.16H129.404ZM121.164 29.32H128.604V22.12C128.604 21.6933 128.444 21.32 128.124 21C127.857 20.68 127.51 20.52 127.084 20.52H122.684C122.257 20.52 121.884 20.68 121.564 21C121.297 21.32 121.164 21.6933 121.164 22.12V29.32Z" fill="#5553EE"/>
<path d="M172.101 53H161.381V13.96H171.141V15.96C172.795 14.0933 175.301 13.16 178.661 13.16H180.341C186.955 13.16 190.261 16.68 190.261 23.72V53H179.541V22.44C179.541 22.0133 179.381 21.64 179.061 21.32C178.795 21 178.448 20.84 178.021 20.84H173.621C173.195 20.84 172.821 21 172.501 21.32C172.235 21.64 172.101 22.0133 172.101 22.44V53Z" fill="#5553EE"/>
<path d="M216.513 13.16C223.126 13.16 226.433 16.68 226.433 23.72V36.36H208.273V44.52C208.273 44.9467 208.406 45.32 208.673 45.64C208.993 45.96 209.366 46.12 209.793 46.12H214.193C214.62 46.12 214.966 45.96 215.233 45.64C215.553 45.32 215.713 44.9467 215.713 44.52V40.2H226.433V43.24C226.433 50.28 223.126 53.8 216.513 53.8H207.473C200.86 53.8 197.553 50.28 197.553 43.24V23.72C197.553 16.68 200.86 13.16 207.473 13.16H216.513ZM208.273 29.32H215.713V22.12C215.713 21.6933 215.553 21.32 215.233 21C214.966 20.68 214.62 20.52 214.193 20.52H209.793C209.366 20.52 208.993 20.68 208.673 21C208.406 21.32 208.273 21.6933 208.273 22.12V29.32Z" fill="#5553EE"/>
<path d="M250.079 13.96H260.319L266.159 44.28L270.719 13.96H281.119L272.559 53H259.599L255.199 28.92L250.799 53H237.839L229.279 13.96H239.679L244.239 44.28L250.079 13.96Z" fill="#5553EE"/>
<path d="M303.687 28.52C310.301 28.52 313.607 32.04 313.607 39.08V46.12C332.5 53.8 323.5 50 332.5 53.8H313.607H294.807C288.194 53.8 284.887 50.28 284.887 43.24V40.76H294.807V44.28C294.807 44.7067 294.941 45.08 295.207 45.4C295.527 45.72 295.901 45.88 296.327 45.88H302.887C303.314 45.88 303.661 45.72 303.927 45.4C304.247 45.08 304.407 44.7067 304.407 44.28V39.48C304.407 39.0533 304.247 38.68 303.927 38.36C303.661 38.04 303.314 37.88 302.887 37.88H294.647C288.034 37.88 284.727 34.36 284.727 27.32V23.72C284.727 16.68 288.034 13.16 294.647 13.16H303.047C309.661 13.16 312.967 16.68 312.967 23.72V25.16H303.047V22.68C303.047 22.2533 302.887 21.88 302.567 21.56C302.301 21.24 301.954 21.08 301.527 21.08H295.447C295.021 21.08 294.647 21.24 294.327 21.56C294.061 21.88 293.927 22.2533 293.927 22.68V26.92C293.927 27.3467 294.061 27.72 294.327 28.04C294.647 28.36 295.021 28.52 295.447 28.52H303.687Z" fill="#5553EE"/>
</svg>
