<svg width="299" height="54" viewBox="0 0 299 54" fill="none" xmlns="http://www.w3.org/2000/svg">
<path d="M14.84 7.8C13.6666 7.8 12.7866 8.06667 12.2 8.6C11.6133 9.13334 11.32 10.1467 11.32 11.64V13.96H18.04V22.04H11.32V53H0.599976V11C0.599976 3.96 3.90664 0.440002 10.52 0.440002H18.04V7.8H14.84Z" fill="#5553EE"/>
<path d="M42.6275 13.96H51.6675V53H42.6275V50.12C40.9741 52.5733 38.2275 53.8 34.3875 53.8H32.7075C26.0941 53.8 22.7875 50.28 22.7875 43.24V23.72C22.7875 16.68 26.0941 13.16 32.7075 13.16H34.3875C38.2275 13.16 40.9741 14.3867 42.6275 16.84V13.96ZM40.9475 44.52V22.44C40.9475 22.0133 40.7875 21.64 40.4675 21.32C40.2008 21 39.8541 20.84 39.4275 20.84H35.0275C34.6008 20.84 34.2275 21 33.9075 21.32C33.6408 21.64 33.5075 22.0133 33.5075 22.44V44.52C33.5075 44.9467 33.6408 45.32 33.9075 45.64C34.2275 45.96 34.6008 46.12 35.0275 46.12H39.4275C39.8541 46.12 40.2008 45.96 40.4675 45.64C40.7875 45.32 40.9475 44.9467 40.9475 44.52Z" fill="#5553EE"/>
<path d="M89.6794 13.96L81.6794 32.28L90.9594 53H80.2393L72.8793 36.76H69.6794V53H58.9594V1.24H69.6794V27.96H73.2794L79.1194 13.96H89.6794Z" fill="#5553EE"/>
<path d="M114.404 13.16C121.017 13.16 124.324 16.68 124.324 23.72V36.36H106.164V44.52C106.164 44.9467 106.297 45.32 106.564 45.64C106.884 45.96 107.257 46.12 107.684 46.12H112.084C112.51 46.12 112.857 45.96 113.124 45.64C113.444 45.32 113.604 44.9467 113.604 44.52V40.2H124.324V43.24C124.324 50.28 121.017 53.8 114.404 53.8H105.364C98.7504 53.8 95.4437 50.28 95.4437 43.24V23.72C95.4437 16.68 98.7504 13.16 105.364 13.16H114.404ZM106.164 29.32H113.604V22.12C113.604 21.6933 113.444 21.32 113.124 21C112.857 20.68 112.51 20.52 112.084 20.52H107.684C107.257 20.52 106.884 20.68 106.564 21C106.297 21.32 106.164 21.6933 106.164 22.12V29.32Z" fill="#5553EE"/>
<path d="M157.101 53H146.381V13.96H156.141V15.96C157.795 14.0933 160.301 13.16 163.661 13.16H165.341C171.955 13.16 175.261 16.68 175.261 23.72V53H164.541V22.44C164.541 22.0133 164.381 21.64 164.061 21.32C163.795 21 163.448 20.84 163.021 20.84H158.621C158.195 20.84 157.821 21 157.501 21.32C157.235 21.64 157.101 22.0133 157.101 22.44V53Z" fill="#5553EE"/>
<path d="M201.513 13.16C208.126 13.16 211.433 16.68 211.433 23.72V36.36H193.273V44.52C193.273 44.9467 193.406 45.32 193.673 45.64C193.993 45.96 194.366 46.12 194.793 46.12H199.193C199.62 46.12 199.966 45.96 200.233 45.64C200.553 45.32 200.713 44.9467 200.713 44.52V40.2H211.433V43.24C211.433 50.28 208.126 53.8 201.513 53.8H192.473C185.86 53.8 182.553 50.28 182.553 43.24V23.72C182.553 16.68 185.86 13.16 192.473 13.16H201.513ZM193.273 29.32H200.713V22.12C200.713 21.6933 200.553 21.32 200.233 21C199.966 20.68 199.62 20.52 199.193 20.52H194.793C194.366 20.52 193.993 20.68 193.673 21C193.406 21.32 193.273 21.6933 193.273 22.12V29.32Z" fill="#5553EE"/>
<path d="M235.079 13.96H245.319L251.159 44.28L255.719 13.96V13.16L292 7.5L266 15L257.559 53H244.599L240.199 28.92L235.799 53H222.839L214.279 13.96H224.679L229.239 44.28L235.079 13.96Z" fill="#5553EE"/>
<path d="M288.687 28.52C295.301 28.52 298.607 32.04 298.607 39.08V43.24C298.607 50.28 295.301 53.8 288.687 53.8H279.807C273.194 53.8 269.887 50.28 269.887 43.24V40.76H279.807V44.28C279.807 44.7067 279.941 45.08 280.207 45.4C280.527 45.72 280.901 45.88 281.327 45.88H287.887C288.314 45.88 288.661 45.72 288.927 45.4C289.247 45.08 289.407 44.7067 289.407 44.28V39.48C289.407 39.0533 289.247 38.68 288.927 38.36C288.661 38.04 288.314 37.88 287.887 37.88H279.647C273.034 37.88 269.727 34.36 269.727 27.32V23.72C269.727 16.68 273.034 13.16 279.647 13.16H288.047C294.661 13.16 297.967 16.68 297.967 23.72V25.16H288.047V22.68C288.047 22.2533 287.887 21.88 287.567 21.56C287.301 21.24 286.954 21.08 286.527 21.08H280.447C280.021 21.08 279.647 21.24 279.327 21.56C279.061 21.88 278.927 22.2533 278.927 22.68V26.92C278.927 27.3467 279.061 27.72 279.327 28.04C279.647 28.36 280.021 28.52 280.447 28.52H288.687Z" fill="#5553EE"/>
</svg>
