<svg width="132" height="68" viewBox="0 0 132 68" fill="none" xmlns="http://www.w3.org/2000/svg">
<path d="M9.15 4.75C8.41667 4.75 7.86667 4.91667 7.5 5.25C7.13333 5.58333 6.95 6.21667 6.95 7.15V8.6H11.15V13.65H6.95V33H0.25V6.75C0.25 2.35 2.31667 0.150002 6.45 0.150002H11.15V4.75H9.15Z" fill="#5553EE"/>
<path d="M27.5172 8.6H33.1672V33H27.5172V31.2C26.4839 32.7333 24.7672 33.5 22.3672 33.5H21.3172C17.1839 33.5 15.1172 31.3 15.1172 26.9V14.7C15.1172 10.3 17.1839 8.1 21.3172 8.1H22.3672C24.7672 8.1 26.4839 8.86667 27.5172 10.4V8.6ZM26.4672 27.7V13.9C26.4672 13.6333 26.3672 13.4 26.1672 13.2C26.0005 13 25.7839 12.9 25.5172 12.9H22.7672C22.5005 12.9 22.2672 13 22.0672 13.2C21.9005 13.4 21.8172 13.6333 21.8172 13.9V27.7C21.8172 27.9667 21.9005 28.2 22.0672 28.4C22.2672 28.6 22.5005 28.7 22.7672 28.7H25.5172C25.7839 28.7 26.0005 28.6 26.1672 28.4C26.3672 28.2 26.4672 27.9667 26.4672 27.7Z" fill="#5553EE"/>
<path d="M57.9246 8.6L52.9246 20.05L58.7246 33H52.0246L47.4246 22.85H45.4246V33H38.7246V0.650001H45.4246V17.35H47.6746L51.3246 8.6H57.9246Z" fill="#5553EE"/>
<path d="M74.3773 8.1C78.5107 8.1 80.5773 10.3 80.5773 14.7V22.6H69.2273V27.7C69.2273 27.9667 69.3107 28.2 69.4773 28.4C69.6773 28.6 69.9107 28.7 70.1773 28.7H72.9273C73.194 28.7 73.4107 28.6 73.5773 28.4C73.7773 28.2 73.8773 27.9667 73.8773 27.7V25H80.5773V26.9C80.5773 31.3 78.5107 33.5 74.3773 33.5H68.7273C64.594 33.5 62.5273 31.3 62.5273 26.9V14.7C62.5273 10.3 64.594 8.1 68.7273 8.1H74.3773ZM69.2273 18.2H73.8773V13.7C73.8773 13.4333 73.7773 13.2 73.5773 13C73.4107 12.8 73.194 12.7 72.9273 12.7H70.1773C69.9107 12.7 69.6773 12.8 69.4773 13C69.3107 13.2 69.2273 13.4333 69.2273 13.7V18.2Z" fill="#5553EE"/>
<path d="M39.95 67H33.25V42.6H39.35V43.85C40.3833 42.6833 41.95 42.1 44.05 42.1H45.1C49.2333 42.1 51.3 44.3 51.3 48.7V67H44.6V47.9C44.6 47.6333 44.5 47.4 44.3 47.2C44.1333 47 43.9167 46.9 43.65 46.9H40.9C40.6333 46.9 40.4 47 40.2 47.2C40.0333 47.4 39.95 47.6333 39.95 47.9V67Z" fill="#5553EE"/>
<path d="M68.7074 42.1C72.8408 42.1 74.9074 44.3 74.9074 48.7V56.6H63.5574V61.7C63.5574 61.9667 63.6408 62.2 63.8074 62.4C64.0074 62.6 64.2408 62.7 64.5074 62.7H67.2574C67.5241 62.7 67.7408 62.6 67.9074 62.4C68.1074 62.2 68.2074 61.9667 68.2074 61.7V59H74.9074V60.9C74.9074 65.3 72.8408 67.5 68.7074 67.5H63.0574C58.9241 67.5 56.8574 65.3 56.8574 60.9V48.7C56.8574 44.3 58.9241 42.1 63.0574 42.1H68.7074ZM63.5574 52.2H68.2074V47.7C68.2074 47.4333 68.1074 47.2 67.9074 47C67.7408 46.8 67.5241 46.7 67.2574 46.7H64.5074C64.2408 46.7 64.0074 46.8 63.8074 47C63.6408 47.2 63.5574 47.4333 63.5574 47.7V52.2Z" fill="#5553EE"/>
<path d="M90.6859 42.6H97.0859L100.736 61.55L103.586 42.6H110.086L104.736 67H96.6359L93.8859 51.95L91.1359 67H83.0359L77.6859 42.6H84.1859L87.0359 61.55L90.6859 42.6Z" fill="#5553EE"/>
<path d="M125.191 51.7C129.325 51.7 131.391 53.9 131.391 58.3V60.9C131.391 65.3 129.325 67.5 125.191 67.5H119.641C115.508 67.5 113.441 65.3 113.441 60.9V59.35H119.641V61.55C119.641 61.8167 119.725 62.05 119.891 62.25C120.091 62.45 120.325 62.55 120.591 62.55H124.691C124.958 62.55 125.175 62.45 125.341 62.25C125.541 62.05 125.641 61.8167 125.641 61.55V58.55C125.641 58.2833 125.541 58.05 125.341 57.85C125.175 57.65 124.958 57.55 124.691 57.55H119.541C115.408 57.55 113.341 55.35 113.341 50.95V48.7C113.341 44.3 115.408 42.1 119.541 42.1H124.791C128.925 42.1 130.991 44.3 130.991 48.7V49.6H124.791V48.05C124.791 47.7833 124.691 47.55 124.491 47.35C124.325 47.15 124.108 47.05 123.841 47.05H120.041C119.775 47.05 119.541 47.15 119.341 47.35C119.175 47.55 119.091 47.7833 119.091 48.05V50.7C119.091 50.9667 119.175 51.2 119.341 51.4C119.541 51.6 119.775 51.7 120.041 51.7H125.191Z" fill="#5553EE"/>
</svg>
